<?xml version="1.0" standalone="no"?>
<!DOCTYPE svg PUBLIC "-//W3C//DTD SVG 20010904//EN"
 "http://www.w3.org/TR/2001/REC-SVG-20010904/DTD/svg10.dtd">
<svg version="1.0" xmlns="http://www.w3.org/2000/svg"
 width="290.000000pt" height="290.000000pt" viewBox="0 0 290.000000 290.000000"
 preserveAspectRatio="xMidYMid meet">

<g transform="translate(0.000000,290.000000) scale(0.100000,-0.100000)"
fill="#000000" stroke="none">
<path d="M554 2083 l-150 -4 36 -38 c21 -22 42 -58 49 -82 22 -79 34 -482 23
-724 -12 -248 -25 -310 -76 -361 l-32 -32 165 -4 c92 -2 167 -3 169 -2 1 1
-13 17 -32 36 -64 64 -69 98 -74 506 -2 234 0 362 6 362 6 0 30 -37 55 -82 24
-46 137 -257 252 -470 l207 -387 109 55 109 54 1 53 c0 28 3 230 5 447 5 499
15 573 86 648 l32 32 -172 0 -173 0 35 -35 c57 -57 67 -107 76 -380 8 -252 2
-525 -10 -525 -8 0 -40 57 -328 595 -174 322 -188 346 -205 343 -6 -1 -80 -4
-163 -5z"/>
<path d="M1650 2080 c0 -3 15 -12 32 -20 18 -8 41 -28 52 -43 21 -28 21 -39
21 -560 0 -501 -1 -534 -18 -559 -11 -15 -34 -33 -53 -40 -19 -6 -34 -14 -34
-18 0 -3 104 -5 230 -5 127 0 230 2 230 5 0 3 -15 12 -32 20 -18 8 -41 28 -52
43 -20 28 -21 42 -24 545 -2 361 0 524 8 543 14 34 48 49 108 49 108 0 180
-48 228 -152 26 -58 29 -72 28 -173 0 -128 -20 -194 -80 -264 -43 -49 -127
-101 -166 -101 -41 0 -34 -16 10 -24 165 -27 346 37 425 151 58 84 72 130 72
243 0 90 -4 113 -24 158 -45 99 -144 165 -286 191 -60 11 -675 21 -675 11z"/>
</g>
</svg>
