<?xml version="1.0" standalone="no"?>
<!DOCTYPE svg PUBLIC "-//W3C//DTD SVG 20010904//EN"
 "http://www.w3.org/TR/2001/REC-SVG-20010904/DTD/svg10.dtd">
<svg version="1.0" xmlns="http://www.w3.org/2000/svg"
 width="246.000000pt" height="160.000000pt" viewBox="0 0 246.000000 160.000000"
 preserveAspectRatio="xMidYMid meet">

<g transform="translate(0.000000,160.000000) scale(0.100000,-0.100000)"
fill="#000000" stroke="none">
<path d="M991 1420 c-149 -5 -162 -6 -138 -19 36 -19 62 -78 81 -180 12 -64
16 -156 16 -407 0 -196 -4 -325 -10 -329 -5 -3 -21 18 -36 47 -15 29 -92 172
-172 318 -79 146 -181 334 -224 418 l-80 152 -175 0 -175 0 39 -38 c66 -64 75
-119 80 -487 7 -467 -11 -618 -83 -690 l-35 -35 177 0 176 0 -31 29 c-72 67
-91 189 -91 589 0 200 3 293 10 290 6 -2 123 -212 260 -466 136 -255 251 -466
254 -470 4 -3 56 18 116 48 l110 54 0 401 c0 554 16 686 90 749 17 14 24 26
17 28 -7 1 -86 1 -176 -2z"/>
<path d="M1355 1401 c83 -38 79 -20 89 -414 5 -206 5 -430 0 -543 -10 -215
-12 -220 -89 -255 l-40 -19 250 0 249 0 -44 23 c-85 43 -82 18 -82 603 0 497
0 517 19 543 27 36 79 47 147 32 125 -28 196 -130 204 -291 6 -118 -10 -187
-61 -263 -47 -69 -106 -111 -183 -131 l-49 -13 53 -11 c195 -43 390 47 469
215 51 110 53 256 3 352 -24 48 -100 117 -153 140 -103 44 -169 51 -504 50
-314 0 -318 -1 -278 -18z"/>
</g>
</svg>
