<svg id="svg" version="1.1" xmlns="http://www.w3.org/2000/svg" xmlns:xlink="http://www.w3.org/1999/xlink" width="400" height="400" viewBox="0, 0, 400,400"><g id="svgg"><path id="path0" d="M159.031 112.350 C 158.912 112.542,159.284 113.037,159.858 113.450 C 167.525 118.968,170.800 125.478,172.612 138.800 C 172.927 141.110,173.400 143.720,173.664 144.600 C 174.570 147.624,174.624 239.640,173.720 240.729 C 173.247 241.299,172.724 241.521,172.195 241.376 C 171.249 241.118,170.975 240.666,165.402 230.200 C 164.348 228.220,162.995 225.700,162.396 224.600 C 161.797 223.500,160.539 221.160,159.600 219.400 C 158.661 217.640,157.401 215.300,156.800 214.200 C 156.199 213.100,154.939 210.760,154.000 209.000 C 151.849 204.966,150.018 201.633,149.386 200.600 C 149.117 200.160,148.091 198.270,147.106 196.400 C 146.121 194.530,144.904 192.280,144.400 191.400 C 143.896 190.520,142.675 188.270,141.685 186.400 C 140.696 184.530,139.750 182.820,139.584 182.600 C 139.197 182.087,135.279 174.910,132.706 170.000 C 131.611 167.910,130.577 166.020,130.409 165.800 C 130.240 165.580,128.889 163.060,127.404 160.200 C 125.920 157.340,124.570 154.820,124.404 154.600 C 124.237 154.380,123.325 152.670,122.377 150.800 C 121.429 148.930,120.266 146.770,119.793 146.000 C 119.320 145.230,117.171 141.180,115.019 137.000 C 112.866 132.820,110.968 129.220,110.801 129.000 C 110.634 128.780,109.416 126.517,108.095 123.970 C 104.433 116.917,102.747 113.870,102.079 113.097 C 101.178 112.055,55.487 112.205,55.286 113.250 C 55.206 113.664,55.788 114.271,56.880 114.916 C 62.278 118.104,67.004 125.522,67.843 132.124 C 67.988 133.266,68.265 134.401,68.459 134.648 C 68.826 135.115,69.736 141.863,70.448 149.400 C 71.024 155.494,71.033 239.985,70.458 245.600 C 69.413 255.814,68.831 260.424,68.527 260.894 C 68.347 261.172,67.997 262.570,67.750 264.000 C 67.304 266.572,67.020 267.505,65.495 271.400 C 63.789 275.759,59.811 280.885,56.716 282.713 C 53.391 284.677,53.789 284.716,78.700 284.876 C 105.690 285.049,104.856 285.134,100.664 282.646 C 94.484 278.978,89.940 269.814,88.343 257.800 C 88.139 256.260,87.797 253.920,87.584 252.600 C 86.246 244.310,85.900 160.813,87.200 159.991 C 88.574 159.123,89.918 160.538,92.383 165.449 C 93.363 167.402,94.731 169.990,95.422 171.200 C 96.113 172.410,97.632 175.200,98.799 177.400 C 99.966 179.600,101.405 182.300,101.998 183.400 C 102.591 184.500,104.125 187.380,105.407 189.800 C 106.689 192.220,109.327 197.143,111.269 200.739 C 113.211 204.336,114.800 207.341,114.800 207.418 C 114.800 207.494,115.403 208.602,116.140 209.879 C 116.877 211.155,118.522 214.180,119.795 216.600 C 121.068 219.020,122.240 221.180,122.400 221.400 C 122.560 221.620,124.092 224.500,125.804 227.800 C 127.516 231.100,129.047 233.980,129.207 234.200 C 129.367 234.420,130.531 236.580,131.793 239.000 C 133.054 241.420,134.697 244.414,135.443 245.652 C 136.190 246.891,136.800 247.994,136.800 248.104 C 136.800 248.213,137.583 249.720,138.541 251.451 C 139.499 253.183,141.144 256.220,142.198 258.200 C 143.252 260.180,144.605 262.700,145.204 263.800 C 145.803 264.900,147.061 267.240,148.000 269.000 C 148.938 270.760,150.157 273.010,150.708 274.000 C 151.259 274.990,152.962 278.230,154.493 281.200 C 159.349 290.622,158.265 290.127,165.748 286.337 C 168.856 284.762,175.251 281.535,179.957 279.166 C 184.663 276.796,188.783 274.589,189.112 274.260 C 189.635 273.736,189.728 266.428,189.860 215.331 C 189.950 180.268,190.170 155.484,190.411 153.200 C 190.632 151.110,190.996 147.240,191.220 144.600 C 191.444 141.960,191.814 138.990,192.041 138.000 C 192.269 137.010,192.611 135.210,192.802 134.000 C 193.945 126.751,198.006 118.702,202.194 115.385 C 205.026 113.142,205.621 112.555,205.344 112.278 C 204.935 111.868,159.285 111.939,159.031 112.350 M227.200 113.151 C 227.200 113.713,227.570 114.016,228.500 114.216 C 236.310 115.894,241.100 121.650,242.473 131.006 C 243.373 137.144,243.233 262.907,242.320 267.971 C 241.503 272.500,239.786 276.204,237.466 278.443 C 235.864 279.989,230.002 283.200,228.782 283.200 C 228.118 283.200,226.952 284.790,227.597 284.816 C 227.818 284.825,242.130 284.832,259.400 284.832 C 276.670 284.832,290.986 284.825,291.214 284.816 C 291.940 284.788,290.831 283.200,290.086 283.200 C 289.709 283.200,287.909 282.454,286.086 281.543 C 280.436 278.718,277.503 274.518,276.771 268.200 C 276.567 266.440,276.228 263.650,276.017 262.000 C 275.168 255.331,275.522 131.364,276.400 128.062 C 279.023 118.201,291.649 115.055,305.800 120.737 C 332.284 131.370,336.541 180.875,312.929 203.650 C 307.546 208.842,297.932 213.931,293.286 214.047 C 288.364 214.171,288.245 215.651,293.076 216.655 C 300.425 218.182,304.374 218.490,311.005 218.053 C 344.854 215.827,366.414 190.972,363.984 156.978 C 363.504 150.261,362.361 145.675,359.782 140.109 C 356.018 131.989,349.372 125.390,340.200 120.668 C 335.887 118.447,327.063 115.628,321.842 114.802 C 320.325 114.562,318.724 114.173,318.284 113.938 C 315.560 112.480,227.200 111.717,227.200 113.151 " stroke="none" fill="#5f5f5f" fill-rule="evenodd"></path><path id="path1" d="M177.200 0.400 C 177.200 0.644,175.333 0.800,172.400 0.800 C 168.400 0.800,167.600 0.900,167.600 1.400 C 167.600 1.888,166.937 2.000,164.033 2.000 C 160.127 2.000,159.200 2.200,159.200 3.043 C 159.200 3.473,158.467 3.600,155.987 3.600 C 153.501 3.600,152.723 3.736,152.545 4.200 C 152.374 4.646,151.664 4.800,149.784 4.800 C 147.605 4.800,147.219 4.911,147.000 5.600 C 146.788 6.268,146.395 6.400,144.622 6.400 C 143.222 6.400,142.328 6.605,142.000 7.000 C 141.697 7.365,140.821 7.600,139.765 7.600 C 138.438 7.600,137.927 7.789,137.600 8.400 C 137.269 9.018,136.762 9.200,135.373 9.200 C 134.144 9.200,133.502 9.390,133.345 9.800 C 133.204 10.166,132.598 10.400,131.790 10.400 C 130.069 10.400,129.200 10.750,129.200 11.443 C 129.200 11.813,128.730 12.000,127.800 12.000 C 126.822 12.000,126.400 12.181,126.400 12.600 C 126.400 13.012,125.986 13.200,125.076 13.200 C 124.349 13.200,123.404 13.464,122.976 13.787 C 122.549 14.110,121.793 14.380,121.296 14.387 C 120.799 14.394,120.084 14.760,119.707 15.200 C 119.327 15.644,118.527 16.000,117.911 16.000 C 117.190 16.000,116.800 16.211,116.800 16.600 C 116.800 17.019,116.378 17.200,115.400 17.200 C 114.533 17.200,113.695 17.505,113.200 18.000 C 112.760 18.440,111.944 18.800,111.387 18.800 C 110.831 18.800,110.271 19.070,110.145 19.400 C 110.018 19.730,109.574 20.000,109.157 20.000 C 108.741 20.000,108.066 20.334,107.658 20.742 C 107.250 21.150,106.440 21.604,105.858 21.750 C 105.276 21.896,104.800 22.192,104.800 22.408 C 104.800 22.623,104.350 22.800,103.800 22.800 C 103.067 22.800,102.800 23.013,102.800 23.600 C 102.800 24.248,102.533 24.400,101.400 24.400 C 100.422 24.400,100.000 24.581,100.000 25.000 C 100.000 25.400,99.600 25.600,98.800 25.600 C 98.000 25.600,97.600 25.800,97.600 26.200 C 97.600 26.530,97.268 26.800,96.862 26.800 C 96.456 26.800,95.798 27.160,95.400 27.600 C 95.002 28.040,94.344 28.400,93.938 28.400 C 93.532 28.400,93.200 28.656,93.200 28.968 C 93.200 29.281,92.648 29.658,91.973 29.806 C 91.298 29.954,90.649 30.328,90.530 30.638 C 90.412 30.947,90.064 31.200,89.757 31.200 C 89.451 31.200,89.200 31.470,89.200 31.800 C 89.200 32.204,88.796 32.400,87.963 32.400 C 87.062 32.400,86.668 32.617,86.516 33.200 C 86.400 33.643,85.970 34.000,85.553 34.000 C 85.139 34.000,84.800 34.248,84.800 34.550 C 84.800 34.852,84.260 35.208,83.600 35.340 C 82.896 35.481,82.400 35.832,82.400 36.190 C 82.400 36.533,82.050 36.800,81.600 36.800 C 81.156 36.800,80.800 37.067,80.800 37.400 C 80.800 37.733,80.444 38.000,80.000 38.000 C 79.560 38.000,79.200 38.248,79.200 38.550 C 79.200 38.852,78.660 39.208,78.000 39.340 C 77.296 39.481,76.800 39.832,76.800 40.190 C 76.800 40.533,76.450 40.800,76.000 40.800 C 75.556 40.800,75.200 41.067,75.200 41.400 C 75.200 41.730,74.930 42.000,74.600 42.000 C 74.267 42.000,74.000 42.356,74.000 42.800 C 74.000 43.411,73.733 43.600,72.870 43.600 C 72.067 43.600,71.401 44.006,70.572 45.000 C 69.930 45.770,69.178 46.400,68.902 46.400 C 68.626 46.400,68.400 46.649,68.400 46.953 C 68.400 47.258,68.040 47.601,67.600 47.716 C 67.160 47.831,66.800 48.212,66.800 48.563 C 66.800 48.913,66.530 49.200,66.200 49.200 C 65.870 49.200,65.600 49.470,65.600 49.800 C 65.600 50.130,65.330 50.400,65.000 50.400 C 64.667 50.400,64.400 50.756,64.400 51.200 C 64.400 51.733,64.133 52.000,63.600 52.000 C 63.156 52.000,62.800 52.267,62.800 52.600 C 62.800 52.930,62.530 53.200,62.200 53.200 C 61.870 53.200,61.600 53.470,61.600 53.800 C 61.600 54.133,61.244 54.400,60.800 54.400 C 60.267 54.400,60.000 54.667,60.000 55.200 C 60.000 55.644,59.733 56.000,59.400 56.000 C 59.070 56.000,58.800 56.249,58.800 56.553 C 58.800 56.858,58.440 57.201,58.000 57.316 C 57.560 57.431,57.200 57.812,57.200 58.163 C 57.200 58.513,56.930 58.800,56.600 58.800 C 56.270 58.800,56.000 59.070,56.000 59.400 C 56.000 59.733,55.644 60.000,55.200 60.000 C 54.667 60.000,54.400 60.267,54.400 60.800 C 54.400 61.244,54.133 61.600,53.800 61.600 C 53.470 61.600,53.200 61.870,53.200 62.200 C 53.200 62.530,52.930 62.800,52.600 62.800 C 52.267 62.800,52.000 63.156,52.000 63.600 C 52.000 64.133,51.733 64.400,51.200 64.400 C 50.756 64.400,50.400 64.667,50.400 65.000 C 50.400 65.330,50.130 65.600,49.800 65.600 C 49.470 65.600,49.200 65.849,49.200 66.153 C 49.200 66.458,48.840 66.801,48.400 66.916 C 47.960 67.031,47.600 67.412,47.600 67.763 C 47.600 68.113,47.330 68.400,47.000 68.400 C 46.670 68.400,46.400 68.639,46.400 68.930 C 46.400 69.222,45.770 69.986,45.000 70.628 C 44.021 71.444,43.600 72.127,43.600 72.898 C 43.600 73.733,43.406 74.000,42.800 74.000 C 42.356 74.000,42.000 74.267,42.000 74.600 C 42.000 74.930,41.730 75.200,41.400 75.200 C 41.067 75.200,40.800 75.556,40.800 76.000 C 40.800 76.444,40.533 76.800,40.200 76.800 C 39.870 76.800,39.600 77.070,39.600 77.400 C 39.600 77.730,39.240 78.360,38.800 78.800 C 38.360 79.240,38.000 79.870,38.000 80.200 C 38.000 80.530,37.730 80.800,37.400 80.800 C 37.067 80.800,36.800 81.156,36.800 81.600 C 36.800 82.050,36.533 82.400,36.190 82.400 C 35.832 82.400,35.481 82.896,35.340 83.600 C 35.208 84.260,34.852 84.800,34.550 84.800 C 34.248 84.800,34.000 85.139,34.000 85.553 C 34.000 85.970,33.643 86.400,33.200 86.516 C 32.617 86.668,32.400 87.062,32.400 87.963 C 32.400 88.796,32.204 89.200,31.800 89.200 C 31.470 89.200,31.200 89.470,31.200 89.800 C 31.200 90.130,30.949 90.400,30.643 90.400 C 30.031 90.400,29.600 91.241,29.600 92.433 C 29.600 92.855,29.330 93.200,29.000 93.200 C 28.670 93.200,28.400 93.430,28.400 93.711 C 28.400 93.992,28.040 94.530,27.600 94.907 C 27.160 95.284,26.800 95.960,26.800 96.409 C 26.800 96.858,26.530 97.329,26.200 97.455 C 25.858 97.587,25.600 98.183,25.600 98.843 C 25.600 99.605,25.395 100.000,25.000 100.000 C 24.581 100.000,24.400 100.422,24.400 101.400 C 24.400 102.533,24.248 102.800,23.600 102.800 C 23.139 102.800,22.800 103.067,22.800 103.429 C 22.800 103.774,22.530 104.327,22.200 104.657 C 21.870 104.987,21.600 105.604,21.600 106.029 C 21.600 106.453,21.240 107.160,20.800 107.600 C 20.360 108.040,20.000 108.760,20.000 109.200 C 20.000 109.644,19.733 110.000,19.400 110.000 C 19.005 110.000,18.800 110.395,18.800 111.157 C 18.800 111.794,18.547 112.412,18.238 112.530 C 17.928 112.649,17.545 113.343,17.387 114.073 C 17.228 114.803,16.851 115.755,16.549 116.189 C 16.247 116.623,16.000 117.457,16.000 118.042 C 16.000 118.770,15.747 119.173,15.200 119.316 C 14.625 119.466,14.400 119.862,14.400 120.720 C 14.400 121.413,14.148 122.011,13.800 122.145 C 13.428 122.287,13.200 122.896,13.200 123.745 C 13.200 124.593,12.972 125.202,12.600 125.345 C 12.192 125.501,12.000 126.140,12.000 127.341 C 12.000 128.770,11.848 129.147,11.200 129.316 C 10.546 129.487,10.400 129.862,10.400 131.363 C 10.400 132.729,10.246 133.200,9.800 133.200 C 9.348 133.200,9.200 133.686,9.200 135.173 C 9.200 136.795,9.058 137.191,8.400 137.400 C 7.742 137.609,7.600 138.005,7.600 139.627 C 7.600 141.114,7.452 141.600,7.000 141.600 C 6.554 141.600,6.400 142.071,6.400 143.437 C 6.400 144.668,6.136 145.609,5.600 146.291 C 5.055 146.984,4.800 147.914,4.800 149.211 C 4.800 150.534,4.617 151.185,4.200 151.345 C 3.747 151.518,3.600 152.250,3.600 154.325 C 3.600 156.568,3.452 157.210,2.800 157.800 C 2.131 158.405,2.000 159.032,2.000 161.619 C 2.000 164.002,1.862 164.767,1.400 164.945 C 0.919 165.129,0.800 166.012,0.800 169.387 C 0.800 171.929,0.641 173.600,0.400 173.600 C 0.138 173.600,0.000 182.267,0.000 198.800 C 0.000 215.333,0.138 224.000,0.400 224.000 C 0.644 224.000,0.800 225.867,0.800 228.800 C 0.800 232.653,0.911 233.600,1.361 233.600 C 1.795 233.600,1.954 234.476,2.061 237.433 C 2.173 240.515,2.337 241.365,2.900 241.777 C 3.436 242.168,3.600 242.867,3.600 244.757 C 3.600 246.582,3.756 247.285,4.200 247.455 C 4.629 247.620,4.800 248.291,4.800 249.810 C 4.800 252.304,5.076 253.200,5.843 253.200 C 6.244 253.200,6.400 253.753,6.400 255.171 C 6.400 256.390,6.629 257.372,7.000 257.743 C 7.337 258.080,7.600 259.058,7.600 259.975 C 7.600 261.113,7.843 261.816,8.400 262.293 C 8.970 262.781,9.200 263.473,9.200 264.701 C 9.200 265.865,9.395 266.500,9.800 266.655 C 10.170 266.797,10.400 267.405,10.400 268.243 C 10.400 269.067,10.714 269.914,11.200 270.400 C 11.644 270.844,12.000 271.733,12.000 272.400 C 12.000 273.200,12.200 273.600,12.600 273.600 C 13.054 273.600,13.200 274.090,13.200 275.613 C 13.200 277.032,13.377 277.693,13.800 277.855 C 14.148 277.989,14.400 278.587,14.400 279.280 C 14.400 280.138,14.625 280.534,15.200 280.684 C 15.769 280.833,16.000 281.230,16.000 282.059 C 16.000 282.727,16.257 283.324,16.600 283.455 C 16.948 283.589,17.200 284.187,17.200 284.880 C 17.200 285.738,17.425 286.134,18.000 286.284 C 18.594 286.439,18.800 286.830,18.800 287.798 C 18.800 288.515,19.070 289.326,19.400 289.600 C 19.730 289.874,20.000 290.393,20.000 290.753 C 20.000 291.113,20.360 291.632,20.800 291.907 C 21.252 292.190,21.600 292.840,21.600 293.403 C 21.600 294.023,21.827 294.400,22.200 294.400 C 22.619 294.400,22.800 294.822,22.800 295.800 C 22.800 296.933,22.952 297.200,23.600 297.200 C 24.248 297.200,24.400 297.467,24.400 298.600 C 24.400 299.578,24.581 300.000,25.000 300.000 C 25.401 300.000,25.600 300.401,25.600 301.213 C 25.600 301.898,25.850 302.521,26.176 302.646 C 26.492 302.767,26.863 303.377,27.000 304.000 C 27.137 304.623,27.508 305.233,27.824 305.354 C 28.141 305.476,28.400 305.851,28.400 306.187 C 28.400 306.524,28.650 306.800,28.955 306.800 C 29.274 306.800,29.623 307.398,29.774 308.200 C 29.931 309.038,30.270 309.600,30.618 309.600 C 30.938 309.600,31.200 309.960,31.200 310.400 C 31.200 310.844,31.467 311.200,31.800 311.200 C 32.179 311.200,32.400 311.582,32.400 312.237 C 32.400 312.938,32.659 313.343,33.200 313.484 C 33.643 313.600,34.000 314.030,34.000 314.447 C 34.000 314.861,34.270 315.200,34.600 315.200 C 34.934 315.200,35.200 315.556,35.200 316.004 C 35.200 316.446,35.560 317.116,36.000 317.493 C 36.440 317.870,36.800 318.408,36.800 318.689 C 36.800 318.970,37.070 319.200,37.400 319.200 C 37.733 319.200,38.000 319.556,38.000 320.000 C 38.000 320.440,38.256 320.800,38.568 320.800 C 38.881 320.800,39.255 321.340,39.400 322.000 C 39.545 322.660,39.919 323.200,40.232 323.200 C 40.544 323.200,40.800 323.560,40.800 324.000 C 40.800 324.444,41.067 324.800,41.400 324.800 C 41.730 324.800,42.000 325.087,42.000 325.437 C 42.000 325.788,42.360 326.169,42.800 326.284 C 43.240 326.399,43.600 326.742,43.600 327.047 C 43.600 327.351,43.870 327.600,44.200 327.600 C 44.533 327.600,44.800 327.956,44.800 328.400 C 44.800 328.840,45.160 329.560,45.600 330.000 C 46.040 330.440,46.400 330.980,46.400 331.200 C 46.400 331.420,46.670 331.600,47.000 331.600 C 47.330 331.600,47.600 331.887,47.600 332.237 C 47.600 332.588,47.960 332.969,48.400 333.084 C 48.840 333.199,49.200 333.542,49.200 333.847 C 49.200 334.151,49.470 334.400,49.800 334.400 C 50.130 334.400,50.400 334.687,50.400 335.037 C 50.400 335.388,50.760 335.769,51.200 335.884 C 51.640 335.999,52.000 336.342,52.000 336.647 C 52.000 336.951,52.270 337.200,52.600 337.200 C 52.933 337.200,53.200 337.556,53.200 338.000 C 53.200 338.444,53.467 338.800,53.800 338.800 C 54.130 338.800,54.400 339.070,54.400 339.400 C 54.400 339.733,54.756 340.000,55.200 340.000 C 55.644 340.000,56.000 340.267,56.000 340.600 C 56.000 340.930,56.270 341.200,56.600 341.200 C 56.933 341.200,57.200 341.556,57.200 342.000 C 57.200 342.533,57.467 342.800,58.000 342.800 C 58.444 342.800,58.800 343.067,58.800 343.400 C 58.800 343.730,59.070 344.000,59.400 344.000 C 59.733 344.000,60.000 344.356,60.000 344.800 C 60.000 345.333,60.267 345.600,60.800 345.600 C 61.244 345.600,61.600 345.867,61.600 346.200 C 61.600 346.530,61.870 346.800,62.200 346.800 C 62.530 346.800,62.800 347.087,62.800 347.437 C 62.800 347.788,63.160 348.169,63.600 348.284 C 64.040 348.399,64.400 348.742,64.400 349.047 C 64.400 349.351,64.670 349.600,65.000 349.600 C 65.330 349.600,65.603 349.825,65.607 350.100 C 65.615 350.710,67.342 352.400,67.956 352.400 C 68.200 352.400,68.400 352.670,68.400 353.000 C 68.400 353.330,68.658 353.600,68.973 353.600 C 69.288 353.600,69.660 353.960,69.800 354.400 C 69.940 354.840,70.312 355.200,70.627 355.200 C 70.942 355.200,71.200 355.470,71.200 355.800 C 71.200 356.219,71.622 356.400,72.600 356.400 C 73.733 356.400,74.000 356.552,74.000 357.200 C 74.000 357.644,74.267 358.000,74.600 358.000 C 74.930 358.000,75.200 358.270,75.200 358.600 C 75.200 358.930,75.539 359.200,75.953 359.200 C 76.370 359.200,76.800 359.557,76.916 360.000 C 77.057 360.541,77.462 360.800,78.163 360.800 C 78.818 360.800,79.200 361.021,79.200 361.400 C 79.200 361.733,79.556 362.000,80.000 362.000 C 80.452 362.000,80.800 362.267,80.800 362.613 C 80.800 362.949,81.115 363.341,81.500 363.482 C 81.885 363.624,82.344 363.978,82.520 364.270 C 82.696 364.561,83.281 364.800,83.820 364.800 C 84.450 364.800,84.800 365.028,84.800 365.437 C 84.800 365.788,85.160 366.169,85.600 366.284 C 86.040 366.399,86.400 366.742,86.400 367.047 C 86.400 367.412,86.875 367.600,87.800 367.600 C 88.778 367.600,89.200 367.781,89.200 368.200 C 89.200 368.530,89.427 368.800,89.704 368.800 C 89.981 368.800,90.432 369.160,90.707 369.600 C 90.990 370.052,91.640 370.400,92.203 370.400 C 92.823 370.400,93.200 370.627,93.200 371.000 C 93.200 371.333,93.556 371.600,94.000 371.600 C 94.440 371.600,94.800 371.789,94.800 372.020 C 94.800 372.252,95.430 372.704,96.200 373.026 C 96.970 373.348,97.600 373.788,97.600 374.005 C 97.600 374.222,98.119 374.400,98.753 374.400 C 99.570 374.400,99.968 374.633,100.116 375.200 C 100.268 375.783,100.662 376.000,101.563 376.000 C 102.396 376.000,102.800 376.196,102.800 376.600 C 102.800 376.930,103.070 377.200,103.400 377.200 C 103.730 377.200,104.360 377.560,104.800 378.000 C 105.240 378.440,105.941 378.800,106.357 378.800 C 106.774 378.800,107.218 379.070,107.345 379.400 C 107.479 379.751,108.079 380.000,108.787 380.000 C 109.599 380.000,110.000 380.199,110.000 380.600 C 110.000 380.989,110.390 381.200,111.111 381.200 C 111.727 381.200,112.527 381.556,112.907 382.000 C 113.381 382.553,114.087 382.800,115.196 382.800 C 116.355 382.800,116.800 382.966,116.800 383.400 C 116.800 383.797,117.197 384.000,117.973 384.000 C 118.795 384.000,119.222 384.240,119.400 384.800 C 119.587 385.389,120.005 385.600,120.984 385.600 C 121.798 385.600,122.404 385.833,122.545 386.200 C 122.701 386.608,123.340 386.800,124.541 386.800 C 125.970 386.800,126.347 386.952,126.516 387.600 C 126.668 388.183,127.062 388.400,127.963 388.400 C 128.796 388.400,129.200 388.596,129.200 389.000 C 129.200 389.453,129.689 389.600,131.200 389.600 C 132.643 389.600,133.200 389.755,133.200 390.157 C 133.200 390.857,134.071 391.200,135.845 391.200 C 136.703 391.200,137.312 391.427,137.455 391.800 C 137.616 392.218,138.267 392.400,139.600 392.400 C 140.933 392.400,141.584 392.582,141.745 393.000 C 141.913 393.440,142.607 393.600,144.341 393.600 C 146.370 393.600,146.736 393.714,146.916 394.400 C 147.098 395.098,147.462 395.200,149.763 395.200 C 151.840 395.200,152.400 395.327,152.400 395.800 C 152.400 396.279,152.993 396.400,155.338 396.400 C 157.768 396.400,158.401 396.538,159.000 397.200 C 159.612 397.877,160.232 398.000,163.019 398.000 C 165.579 398.000,166.366 398.134,166.545 398.600 C 166.731 399.085,167.656 399.200,171.387 399.200 C 174.196 399.200,176.000 399.356,176.000 399.600 C 176.000 399.862,184.067 400.000,199.400 400.000 C 214.733 400.000,222.800 399.862,222.800 399.600 C 222.800 399.356,224.667 399.200,227.600 399.200 C 231.600 399.200,232.400 399.100,232.400 398.600 C 232.400 398.106,233.115 398.000,236.437 398.000 C 240.138 398.000,240.492 397.933,240.684 397.200 C 240.871 396.485,241.230 396.400,244.059 396.400 C 246.504 396.400,247.278 396.263,247.455 395.800 C 247.624 395.361,248.316 395.200,250.039 395.200 C 251.960 395.200,252.485 395.053,252.893 394.400 C 253.279 393.782,253.826 393.600,255.296 393.600 C 256.722 393.600,257.200 393.449,257.200 393.000 C 257.200 392.547,257.689 392.400,259.200 392.400 C 260.634 392.400,261.200 392.244,261.200 391.848 C 261.200 391.458,261.918 391.244,263.644 391.119 C 265.385 390.993,266.197 390.749,266.464 390.271 C 266.703 389.845,267.344 389.600,268.220 389.600 C 269.180 389.600,269.600 389.417,269.600 389.000 C 269.600 388.584,270.019 388.400,270.967 388.400 C 272.729 388.400,273.600 388.055,273.600 387.357 C 273.600 386.987,274.070 386.800,275.000 386.800 C 275.919 386.800,276.400 386.612,276.400 386.252 C 276.400 385.897,277.054 385.630,278.260 385.494 C 279.380 385.368,280.264 385.029,280.480 384.642 C 280.685 384.277,281.353 384.000,282.032 384.000 C 282.724 384.000,283.322 383.748,283.455 383.400 C 283.589 383.052,284.187 382.800,284.880 382.800 C 285.738 382.800,286.134 382.575,286.284 382.000 C 286.432 381.433,286.830 381.200,287.647 381.200 C 288.405 381.200,288.800 380.995,288.800 380.600 C 288.800 380.181,289.222 380.000,290.200 380.000 C 291.178 380.000,291.600 379.819,291.600 379.400 C 291.600 378.996,292.004 378.800,292.837 378.800 C 293.738 378.800,294.132 378.583,294.284 378.000 C 294.441 377.399,294.830 377.200,295.847 377.200 C 296.735 377.200,297.200 377.009,297.200 376.645 C 297.200 376.326,297.798 375.977,298.600 375.826 C 299.438 375.669,300.000 375.330,300.000 374.982 C 300.000 374.662,300.347 374.400,300.771 374.400 C 301.196 374.400,301.813 374.130,302.143 373.800 C 302.473 373.470,303.026 373.200,303.371 373.200 C 303.733 373.200,304.000 372.861,304.000 372.400 C 304.000 371.752,304.267 371.600,305.400 371.600 C 306.325 371.600,306.800 371.412,306.800 371.047 C 306.800 370.742,307.160 370.399,307.600 370.284 C 308.040 370.169,308.400 369.788,308.400 369.437 C 308.400 368.994,308.770 368.800,309.613 368.800 C 310.321 368.800,310.921 368.551,311.055 368.200 C 311.182 367.870,311.536 367.600,311.843 367.600 C 312.149 367.600,312.400 367.330,312.400 367.000 C 312.400 366.596,312.804 366.400,313.637 366.400 C 314.538 366.400,314.932 366.183,315.084 365.600 C 315.199 365.160,315.542 364.800,315.847 364.800 C 316.151 364.800,316.400 364.530,316.400 364.200 C 316.400 363.870,316.745 363.600,317.167 363.600 C 318.359 363.600,319.200 363.169,319.200 362.557 C 319.200 362.251,319.560 362.000,320.000 362.000 C 320.444 362.000,320.800 361.733,320.800 361.400 C 320.800 361.070,321.036 360.800,321.325 360.800 C 321.613 360.800,322.236 360.440,322.708 360.000 C 323.180 359.560,323.844 359.200,324.183 359.200 C 324.522 359.200,324.800 358.951,324.800 358.647 C 324.800 358.342,325.160 357.999,325.600 357.884 C 326.040 357.769,326.400 357.388,326.400 357.037 C 326.400 356.687,326.670 356.400,327.000 356.400 C 327.330 356.400,327.600 356.130,327.600 355.800 C 327.600 355.470,327.842 355.200,328.138 355.200 C 328.434 355.200,329.002 354.840,329.400 354.400 C 329.798 353.960,330.372 353.600,330.675 353.600 C 330.977 353.600,331.329 353.330,331.455 353.000 C 331.582 352.670,331.871 352.400,332.097 352.400 C 332.599 352.400,334.400 350.507,334.400 349.979 C 334.400 349.771,334.600 349.600,334.844 349.600 C 335.458 349.600,337.185 347.910,337.193 347.300 C 337.197 347.025,337.560 346.800,338.000 346.800 C 338.444 346.800,338.800 346.533,338.800 346.200 C 338.800 345.870,339.070 345.600,339.400 345.600 C 339.733 345.600,340.000 345.244,340.000 344.800 C 340.000 344.356,340.267 344.000,340.600 344.000 C 340.930 344.000,341.200 343.730,341.200 343.400 C 341.200 343.067,341.556 342.800,342.000 342.800 C 342.533 342.800,342.800 342.533,342.800 342.000 C 342.800 341.556,343.067 341.200,343.400 341.200 C 343.730 341.200,344.000 340.930,344.000 340.600 C 344.000 340.267,344.356 340.000,344.800 340.000 C 345.244 340.000,345.600 339.733,345.600 339.400 C 345.600 339.070,345.870 338.800,346.200 338.800 C 346.533 338.800,346.800 338.444,346.800 338.000 C 346.800 337.560,347.000 337.200,347.244 337.200 C 347.858 337.200,349.585 335.510,349.593 334.900 C 349.597 334.625,349.800 334.400,350.044 334.400 C 350.636 334.400,352.384 332.720,352.393 332.143 C 352.397 331.891,352.670 331.582,353.000 331.455 C 353.330 331.329,353.600 330.899,353.600 330.501 C 353.600 330.103,353.960 329.517,354.400 329.200 C 354.840 328.883,355.200 328.393,355.200 328.112 C 355.200 327.830,355.470 327.600,355.800 327.600 C 356.130 327.600,356.400 327.351,356.400 327.047 C 356.400 326.742,356.760 326.399,357.200 326.284 C 357.640 326.169,358.000 325.807,358.000 325.480 C 358.000 325.153,358.270 324.782,358.600 324.655 C 358.951 324.521,359.200 323.921,359.200 323.213 C 359.200 322.267,359.376 322.000,360.000 322.000 C 360.444 322.000,360.800 321.733,360.800 321.400 C 360.800 321.070,361.070 320.800,361.400 320.800 C 361.733 320.800,362.000 320.444,362.000 320.000 C 362.000 319.560,362.262 319.200,362.582 319.200 C 362.930 319.200,363.269 318.638,363.426 317.800 C 363.577 316.998,363.926 316.400,364.245 316.400 C 364.550 316.400,364.800 316.130,364.800 315.800 C 364.800 315.470,365.075 315.200,365.410 315.200 C 365.772 315.200,366.121 314.697,366.267 313.966 C 366.403 313.287,366.758 312.637,367.057 312.523 C 367.356 312.408,367.600 312.083,367.600 311.800 C 367.600 311.517,367.870 311.182,368.200 311.055 C 368.551 310.921,368.800 310.321,368.800 309.613 C 368.800 308.667,368.976 308.400,369.600 308.400 C 370.133 308.400,370.400 308.133,370.400 307.600 C 370.400 307.156,370.667 306.800,371.000 306.800 C 371.419 306.800,371.600 306.378,371.600 305.400 C 371.600 304.267,371.752 304.000,372.400 304.000 C 372.861 304.000,373.200 303.733,373.200 303.371 C 373.200 303.026,373.470 302.473,373.800 302.143 C 374.130 301.813,374.400 301.196,374.400 300.771 C 374.400 300.347,374.662 300.000,374.982 300.000 C 375.330 300.000,375.669 299.438,375.826 298.600 C 375.977 297.798,376.326 297.200,376.645 297.200 C 377.009 297.200,377.200 296.735,377.200 295.847 C 377.200 294.830,377.399 294.441,378.000 294.284 C 378.583 294.132,378.800 293.738,378.800 292.837 C 378.800 292.004,378.996 291.600,379.400 291.600 C 379.819 291.600,380.000 291.178,380.000 290.200 C 380.000 289.222,380.181 288.800,380.600 288.800 C 380.995 288.800,381.200 288.405,381.200 287.647 C 381.200 286.830,381.433 286.432,382.000 286.284 C 382.575 286.134,382.800 285.738,382.800 284.880 C 382.800 284.187,383.052 283.589,383.400 283.455 C 383.751 283.321,384.000 282.721,384.000 282.013 C 384.000 281.243,384.203 280.800,384.557 280.800 C 385.224 280.800,385.600 279.940,385.600 278.416 C 385.600 277.801,385.870 277.074,386.200 276.800 C 386.530 276.526,386.800 275.694,386.800 274.951 C 386.800 274.063,386.991 273.600,387.357 273.600 C 388.055 273.600,388.400 272.729,388.400 270.967 C 388.400 270.019,388.584 269.600,389.000 269.600 C 389.451 269.600,389.600 269.116,389.600 267.647 C 389.600 266.030,389.738 265.657,390.400 265.484 C 391.068 265.309,391.200 264.938,391.200 263.237 C 391.200 261.693,391.345 261.200,391.800 261.200 C 392.253 261.200,392.400 260.711,392.400 259.200 C 392.400 257.689,392.547 257.200,393.000 257.200 C 393.453 257.200,393.600 256.713,393.600 255.214 C 393.600 253.638,393.765 253.140,394.400 252.800 C 395.063 252.445,395.200 251.962,395.200 249.973 C 395.200 248.210,395.359 247.514,395.800 247.345 C 396.262 247.167,396.400 246.400,396.400 244.004 C 396.400 241.230,396.487 240.871,397.200 240.684 C 397.921 240.496,398.000 240.138,398.000 237.086 C 398.000 234.562,398.153 233.571,398.600 233.200 C 399.069 232.811,399.200 231.708,399.200 228.151 C 399.200 225.384,399.357 223.600,399.600 223.600 C 399.862 223.600,400.000 216.067,400.000 201.800 C 400.000 187.533,399.862 180.000,399.600 180.000 C 399.353 180.000,399.200 177.950,399.200 174.649 C 399.200 170.380,399.079 169.197,398.600 168.800 C 398.148 168.425,398.000 167.415,398.000 164.714 C 398.000 161.462,397.925 161.105,397.200 160.916 C 396.480 160.728,396.400 160.370,396.400 157.353 C 396.400 154.639,396.286 154.000,395.800 154.000 C 395.324 154.000,395.200 153.422,395.200 151.200 C 395.200 148.667,395.124 148.400,394.400 148.400 C 393.688 148.400,393.600 148.133,393.600 145.987 C 393.600 144.212,393.442 143.514,393.000 143.345 C 392.569 143.179,392.400 142.506,392.400 140.957 C 392.400 139.306,392.259 138.800,391.800 138.800 C 391.366 138.800,391.200 138.355,391.200 137.196 C 391.200 136.087,390.953 135.381,390.400 134.907 C 389.834 134.423,389.600 133.727,389.600 132.531 C 389.600 131.537,389.378 130.708,389.061 130.520 C 388.764 130.344,388.410 129.490,388.273 128.623 C 388.137 127.756,387.750 126.892,387.413 126.703 C 387.047 126.499,386.800 125.804,386.800 124.980 C 386.800 124.020,386.617 123.600,386.200 123.600 C 385.781 123.600,385.600 123.178,385.600 122.200 C 385.600 121.333,385.295 120.495,384.800 120.000 C 384.356 119.556,384.000 118.667,384.000 118.000 C 384.000 117.200,383.800 116.800,383.400 116.800 C 382.996 116.800,382.800 116.396,382.800 115.563 C 382.800 114.662,382.583 114.268,382.000 114.116 C 381.399 113.959,381.200 113.570,381.200 112.553 C 381.200 111.617,381.015 111.200,380.600 111.200 C 380.181 111.200,380.000 110.778,380.000 109.800 C 380.000 108.822,379.819 108.400,379.400 108.400 C 379.070 108.400,378.800 108.055,378.800 107.633 C 378.800 106.441,378.369 105.600,377.757 105.600 C 377.403 105.600,377.200 105.157,377.200 104.387 C 377.200 103.702,376.950 103.079,376.624 102.954 C 376.308 102.833,375.934 102.208,375.793 101.567 C 375.652 100.925,375.281 100.400,374.968 100.400 C 374.656 100.400,374.400 100.117,374.400 99.771 C 374.400 99.426,374.130 98.873,373.800 98.543 C 373.470 98.213,373.200 97.506,373.200 96.971 C 373.200 96.267,372.980 96.000,372.400 96.000 C 371.752 96.000,371.600 95.733,371.600 94.600 C 371.600 93.622,371.419 93.200,371.000 93.200 C 370.670 93.200,370.400 92.930,370.400 92.600 C 370.400 92.267,370.044 92.000,369.600 92.000 C 368.952 92.000,368.800 91.733,368.800 90.600 C 368.800 89.622,368.619 89.200,368.200 89.200 C 367.867 89.200,367.600 88.844,367.600 88.400 C 367.600 87.956,367.333 87.600,367.000 87.600 C 366.627 87.600,366.400 87.223,366.400 86.603 C 366.400 86.040,366.052 85.390,365.600 85.107 C 365.160 84.832,364.800 84.381,364.800 84.104 C 364.800 83.827,364.530 83.600,364.200 83.600 C 363.867 83.600,363.600 83.244,363.600 82.800 C 363.600 82.360,363.240 81.640,362.800 81.200 C 362.360 80.760,362.000 80.214,362.000 79.987 C 362.000 79.761,361.730 79.471,361.400 79.345 C 361.070 79.218,360.800 78.864,360.800 78.557 C 360.800 78.251,360.440 78.000,360.000 78.000 C 359.384 78.000,359.200 77.733,359.200 76.843 C 359.200 76.183,358.942 75.587,358.600 75.455 C 358.270 75.329,358.000 74.949,358.000 74.613 C 358.000 74.267,357.652 74.000,357.200 74.000 C 356.667 74.000,356.400 73.733,356.400 73.200 C 356.400 72.756,356.133 72.400,355.800 72.400 C 355.470 72.400,355.200 72.130,355.200 71.800 C 355.200 71.467,354.844 71.200,354.400 71.200 C 353.810 71.200,353.600 70.933,353.600 70.187 C 353.600 69.603,353.123 68.707,352.477 68.075 C 351.859 67.471,351.235 66.667,351.089 66.289 C 350.944 65.910,350.549 65.600,350.213 65.600 C 349.876 65.600,349.600 65.330,349.600 65.000 C 349.600 64.670,349.351 64.400,349.047 64.400 C 348.742 64.400,348.399 64.040,348.284 63.600 C 348.169 63.160,347.788 62.800,347.437 62.800 C 347.087 62.800,346.800 62.530,346.800 62.200 C 346.800 61.870,346.530 61.600,346.200 61.600 C 345.867 61.600,345.600 61.244,345.600 60.800 C 345.600 60.267,345.333 60.000,344.800 60.000 C 344.356 60.000,344.000 59.733,344.000 59.400 C 344.000 59.070,343.751 58.800,343.447 58.800 C 343.142 58.800,342.799 58.440,342.684 58.000 C 342.569 57.560,342.188 57.200,341.837 57.200 C 341.487 57.200,341.200 56.930,341.200 56.600 C 341.200 56.270,340.930 56.000,340.600 56.000 C 340.270 56.000,339.997 55.775,339.993 55.500 C 339.985 54.890,338.258 53.200,337.644 53.200 C 337.400 53.200,337.200 52.930,337.200 52.600 C 337.200 52.270,336.951 52.000,336.647 52.000 C 336.342 52.000,335.999 51.640,335.884 51.200 C 335.769 50.760,335.388 50.400,335.037 50.400 C 334.687 50.400,334.400 50.130,334.400 49.800 C 334.400 49.470,334.130 49.200,333.800 49.200 C 333.470 49.200,333.200 48.924,333.200 48.587 C 333.200 48.251,332.885 47.859,332.500 47.718 C 332.115 47.576,331.656 47.222,331.480 46.930 C 331.304 46.639,330.989 46.400,330.780 46.400 C 330.571 46.400,330.040 46.040,329.600 45.600 C 329.160 45.160,328.530 44.800,328.200 44.800 C 327.870 44.800,327.600 44.530,327.600 44.200 C 327.600 43.870,327.330 43.600,327.000 43.600 C 326.670 43.600,326.400 43.324,326.400 42.987 C 326.400 42.651,326.085 42.259,325.700 42.118 C 325.315 41.976,324.856 41.622,324.680 41.330 C 324.504 41.039,324.189 40.800,323.980 40.800 C 323.771 40.800,323.240 40.440,322.800 40.000 C 322.360 39.560,321.730 39.200,321.400 39.200 C 321.070 39.200,320.800 38.930,320.800 38.600 C 320.800 38.267,320.444 38.000,320.000 38.000 C 319.556 38.000,319.200 37.733,319.200 37.400 C 319.200 37.027,318.823 36.800,318.203 36.800 C 317.640 36.800,316.990 36.452,316.707 36.000 C 316.432 35.560,315.981 35.200,315.704 35.200 C 315.427 35.200,315.200 34.930,315.200 34.600 C 315.200 34.267,314.844 34.000,314.400 34.000 C 313.960 34.000,313.600 33.816,313.600 33.591 C 313.600 33.367,313.105 32.965,312.500 32.700 C 311.895 32.434,311.256 31.988,311.080 31.708 C 310.904 31.429,310.437 31.200,310.042 31.200 C 309.647 31.200,308.998 30.840,308.600 30.400 C 308.202 29.960,307.634 29.600,307.338 29.600 C 307.042 29.600,306.800 29.330,306.800 29.000 C 306.800 28.581,306.378 28.400,305.400 28.400 C 304.267 28.400,304.000 28.248,304.000 27.600 C 304.000 27.082,303.733 26.800,303.243 26.800 C 302.826 26.800,302.382 26.530,302.255 26.200 C 302.129 25.870,301.569 25.600,301.013 25.600 C 300.379 25.600,300.000 25.375,300.000 25.000 C 300.000 24.581,299.578 24.400,298.600 24.400 C 297.467 24.400,297.200 24.248,297.200 23.600 C 297.200 22.952,296.933 22.800,295.800 22.800 C 294.822 22.800,294.400 22.619,294.400 22.200 C 294.400 21.796,293.996 21.600,293.163 21.600 C 292.262 21.600,291.868 21.383,291.716 20.800 C 291.559 20.199,291.170 20.000,290.153 20.000 C 289.217 20.000,288.800 19.815,288.800 19.400 C 288.800 19.005,288.405 18.800,287.647 18.800 C 286.830 18.800,286.432 18.567,286.284 18.000 C 286.134 17.425,285.738 17.200,284.880 17.200 C 284.187 17.200,283.589 16.948,283.455 16.600 C 283.329 16.270,282.744 16.000,282.157 16.000 C 281.569 16.000,280.877 15.712,280.620 15.359 C 280.357 15.000,279.327 14.626,278.276 14.507 C 277.057 14.370,276.400 14.104,276.400 13.748 C 276.400 13.388,275.919 13.200,275.000 13.200 C 274.022 13.200,273.600 13.019,273.600 12.600 C 273.600 12.147,273.111 12.000,271.600 12.000 C 269.867 12.000,269.600 11.893,269.600 11.200 C 269.600 10.557,269.333 10.400,268.243 10.400 C 267.405 10.400,266.797 10.170,266.655 9.800 C 266.498 9.390,265.856 9.200,264.627 9.200 C 263.238 9.200,262.731 9.018,262.400 8.400 C 262.068 7.780,261.562 7.600,260.157 7.600 C 259.078 7.600,258.100 7.357,257.743 7.000 C 257.376 6.633,256.396 6.400,255.218 6.400 C 253.630 6.400,253.257 6.260,253.084 5.600 C 252.902 4.904,252.538 4.800,250.280 4.800 C 248.343 4.800,247.627 4.648,247.455 4.200 C 247.277 3.736,246.499 3.600,244.013 3.600 C 241.533 3.600,240.800 3.473,240.800 3.043 C 240.800 2.200,239.873 2.000,235.967 2.000 C 233.063 2.000,232.400 1.888,232.400 1.400 C 232.400 0.900,231.600 0.800,227.600 0.800 C 224.667 0.800,222.800 0.644,222.800 0.400 C 222.800 0.138,214.933 0.000,200.000 0.000 C 185.067 0.000,177.200 0.138,177.200 0.400 M206.940 110.777 C 209.088 111.594,208.641 113.554,206.060 114.633 C 204.408 115.323,199.293 120.490,198.330 122.441 C 196.562 126.023,194.404 132.539,194.394 134.325 C 194.391 134.916,194.129 136.120,193.812 137.000 C 193.495 137.880,193.226 139.770,193.216 141.200 C 193.205 142.630,192.943 145.420,192.632 147.400 C 191.707 153.299,191.566 161.603,191.410 219.123 C 191.275 269.105,191.203 274.136,190.608 275.043 C 190.205 275.659,188.011 276.995,184.878 278.534 C 182.085 279.906,175.480 283.209,170.200 285.875 C 156.881 292.598,158.989 293.243,152.290 280.400 C 150.856 277.650,148.937 274.050,148.026 272.400 C 147.114 270.750,145.881 268.410,145.284 267.200 C 144.688 265.990,144.099 264.910,143.977 264.800 C 143.854 264.690,143.065 263.250,142.225 261.600 C 141.384 259.950,140.000 257.399,139.148 255.930 C 138.297 254.462,137.600 253.184,137.600 253.090 C 137.600 252.997,136.676 251.228,135.547 249.160 C 134.418 247.092,132.763 244.050,131.869 242.400 C 130.975 240.750,129.843 238.680,129.354 237.800 C 128.865 236.920,127.629 234.580,126.606 232.600 C 125.584 230.620,124.055 227.740,123.210 226.200 C 122.364 224.660,120.909 221.960,119.975 220.200 C 119.042 218.440,117.739 216.010,117.081 214.800 C 112.294 206.004,108.106 198.189,105.399 193.000 C 104.137 190.580,102.973 188.420,102.812 188.200 C 102.652 187.980,101.340 185.540,99.897 182.778 C 97.150 177.518,96.187 175.721,92.940 169.800 C 91.854 167.820,90.523 165.345,89.983 164.300 C 88.873 162.151,88.522 161.974,88.168 163.385 C 87.703 165.239,88.284 248.055,88.776 250.000 C 89.027 250.990,89.411 253.600,89.629 255.800 C 89.848 258.000,90.291 260.479,90.613 261.308 C 90.936 262.138,91.200 263.325,91.200 263.947 C 91.200 265.261,93.009 270.444,94.607 273.707 C 96.078 276.712,99.167 280.115,101.650 281.466 C 104.537 283.037,105.705 286.211,103.486 286.453 C 98.708 286.973,54.091 286.263,53.483 285.658 C 52.419 284.598,53.151 283.146,55.470 281.713 C 60.458 278.633,66.400 268.467,66.400 263.014 C 66.400 262.485,66.599 261.545,66.843 260.926 C 68.730 256.130,69.258 239.764,69.104 190.800 C 68.963 146.086,68.853 143.028,67.150 136.200 C 66.930 135.320,66.583 133.680,66.378 132.556 C 65.151 125.810,61.302 119.468,56.816 116.800 C 52.764 114.390,51.806 112.742,53.689 111.423 C 54.747 110.682,101.020 110.461,102.383 111.191 C 103.290 111.676,104.912 114.425,109.706 123.600 C 110.568 125.250,111.966 127.860,112.813 129.400 C 113.660 130.940,115.320 134.090,116.502 136.400 C 117.684 138.710,119.197 141.590,119.865 142.800 C 120.532 144.010,121.850 146.440,122.793 148.200 C 123.736 149.960,125.138 152.570,125.909 154.000 C 126.680 155.430,128.027 157.950,128.902 159.600 C 130.432 162.485,131.726 164.884,134.294 169.600 C 134.954 170.810,136.168 173.060,136.993 174.600 C 139.997 180.206,143.748 187.060,145.203 189.600 C 146.023 191.030,147.737 194.180,149.013 196.600 C 150.289 199.020,151.719 201.630,152.190 202.400 C 152.662 203.170,153.635 204.943,154.354 206.341 C 155.072 207.739,155.981 209.454,156.374 210.153 C 156.766 210.852,157.857 212.859,158.798 214.612 C 159.738 216.366,161.136 218.970,161.904 220.400 C 162.672 221.830,164.217 224.710,165.337 226.800 C 166.458 228.890,167.861 231.500,168.455 232.600 C 169.050 233.700,170.037 235.560,170.650 236.732 C 172.830 240.906,172.802 241.413,172.777 197.624 C 172.755 158.607,172.476 145.004,171.647 142.600 C 171.419 141.940,171.063 139.870,170.855 138.000 C 170.492 134.741,170.211 133.431,168.919 129.000 C 168.313 126.923,166.405 122.349,165.999 122.000 C 165.870 121.890,165.235 120.949,164.586 119.908 C 163.308 117.858,160.588 115.572,158.280 114.608 C 156.003 113.656,155.442 111.413,157.295 110.666 C 158.243 110.285,205.924 110.391,206.940 110.777 M304.000 111.221 C 313.138 111.779,318.224 112.264,320.200 112.766 C 321.080 112.989,323.240 113.463,325.000 113.820 C 337.106 116.273,347.188 121.646,354.555 129.570 C 355.460 130.543,356.509 131.662,356.887 132.057 C 366.011 141.583,368.515 166.102,362.170 183.772 C 352.281 211.309,317.360 227.219,289.000 217.108 C 281.445 214.415,281.883 213.093,290.522 212.513 C 293.898 212.286,296.642 211.918,296.902 211.658 C 297.154 211.406,297.677 211.200,298.064 211.200 C 302.040 211.200,313.556 202.094,317.817 195.580 C 322.657 188.181,324.639 182.534,326.446 171.000 C 329.842 149.320,318.318 125.157,302.800 121.418 C 301.590 121.127,300.093 120.688,299.474 120.444 C 298.826 120.189,295.807 120.000,292.365 120.000 C 283.661 120.000,280.348 121.653,278.308 127.013 L 277.400 129.400 277.292 192.600 C 277.142 280.812,276.465 276.339,290.800 281.834 C 293.671 282.934,294.843 284.441,293.867 285.776 C 293.036 286.913,225.764 286.913,224.933 285.776 C 223.795 284.220,225.200 282.896,229.952 281.046 C 235.887 278.735,238.614 275.987,240.096 270.824 C 242.258 263.292,242.185 134.229,240.015 126.735 C 238.525 121.589,234.328 117.456,229.346 116.227 C 225.339 115.239,223.361 113.008,225.184 111.533 C 226.261 110.660,290.661 110.406,304.000 111.221 " stroke="none" fill="#fbfbfb" fill-rule="evenodd"></path><path id="path2" d="M157.295 110.666 C 155.442 111.413,156.003 113.656,158.280 114.608 C 160.588 115.572,163.308 117.858,164.586 119.908 C 165.235 120.949,165.870 121.890,165.999 122.000 C 166.405 122.349,168.313 126.923,168.919 129.000 C 170.211 133.431,170.492 134.741,170.855 138.000 C 171.063 139.870,171.419 141.940,171.647 142.600 C 172.476 145.004,172.755 158.607,172.777 197.624 C 172.802 241.413,172.830 240.906,170.650 236.732 C 170.037 235.560,169.050 233.700,168.455 232.600 C 167.861 231.500,166.458 228.890,165.337 226.800 C 164.217 224.710,162.672 221.830,161.904 220.400 C 161.136 218.970,159.738 216.366,158.798 214.612 C 157.857 212.859,156.766 210.852,156.374 210.153 C 155.981 209.454,155.072 207.739,154.354 206.341 C 153.635 204.943,152.662 203.170,152.190 202.400 C 151.719 201.630,150.289 199.020,149.013 196.600 C 147.737 194.180,146.023 191.030,145.203 189.600 C 143.748 187.060,139.997 180.206,136.993 174.600 C 136.168 173.060,134.954 170.810,134.294 169.600 C 131.726 164.884,130.432 162.485,128.902 159.600 C 128.027 157.950,126.680 155.430,125.909 154.000 C 125.138 152.570,123.736 149.960,122.793 148.200 C 121.850 146.440,120.532 144.010,119.865 142.800 C 119.197 141.590,117.684 138.710,116.502 136.400 C 115.320 134.090,113.660 130.940,112.813 129.400 C 111.966 127.860,110.568 125.250,109.706 123.600 C 104.912 114.425,103.290 111.676,102.383 111.191 C 101.020 110.461,54.747 110.682,53.689 111.423 C 51.806 112.742,52.764 114.390,56.816 116.800 C 61.302 119.468,65.151 125.810,66.378 132.556 C 66.583 133.680,66.930 135.320,67.150 136.200 C 68.853 143.028,68.963 146.086,69.104 190.800 C 69.258 239.764,68.730 256.130,66.843 260.926 C 66.599 261.545,66.400 262.485,66.400 263.014 C 66.400 268.467,60.458 278.633,55.470 281.713 C 53.151 283.146,52.419 284.598,53.483 285.658 C 54.091 286.263,98.708 286.973,103.486 286.453 C 105.705 286.211,104.537 283.037,101.650 281.466 C 99.167 280.115,96.078 276.712,94.607 273.707 C 93.009 270.444,91.200 265.261,91.200 263.947 C 91.200 263.325,90.936 262.138,90.613 261.308 C 90.291 260.479,89.848 258.000,89.629 255.800 C 89.411 253.600,89.027 250.990,88.776 250.000 C 88.284 248.055,87.703 165.239,88.168 163.385 C 88.522 161.974,88.873 162.151,89.983 164.300 C 90.523 165.345,91.854 167.820,92.940 169.800 C 96.187 175.721,97.150 177.518,99.897 182.778 C 101.340 185.540,102.652 187.980,102.812 188.200 C 102.973 188.420,104.137 190.580,105.399 193.000 C 108.106 198.189,112.294 206.004,117.081 214.800 C 117.739 216.010,119.042 218.440,119.975 220.200 C 120.909 221.960,122.364 224.660,123.210 226.200 C 124.055 227.740,125.584 230.620,126.606 232.600 C 127.629 234.580,128.865 236.920,129.354 237.800 C 129.843 238.680,130.975 240.750,131.869 242.400 C 132.763 244.050,134.418 247.092,135.547 249.160 C 136.676 251.228,137.600 252.997,137.600 253.090 C 137.600 253.184,138.297 254.462,139.148 255.930 C 140.000 257.399,141.384 259.950,142.225 261.600 C 143.065 263.250,143.854 264.690,143.977 264.800 C 144.099 264.910,144.688 265.990,145.284 267.200 C 145.881 268.410,147.114 270.750,148.026 272.400 C 148.937 274.050,150.856 277.650,152.290 280.400 C 158.989 293.243,156.881 292.598,170.200 285.875 C 175.480 283.209,182.085 279.906,184.878 278.534 C 188.011 276.995,190.205 275.659,190.608 275.043 C 191.203 274.136,191.275 269.105,191.410 219.123 C 191.566 161.603,191.707 153.299,192.632 147.400 C 192.943 145.420,193.205 142.630,193.216 141.200 C 193.226 139.770,193.495 137.880,193.812 137.000 C 194.129 136.120,194.391 134.916,194.394 134.325 C 194.404 132.539,196.562 126.023,198.330 122.441 C 199.293 120.490,204.408 115.323,206.060 114.633 C 208.641 113.554,209.088 111.594,206.940 110.777 C 205.924 110.391,158.243 110.285,157.295 110.666 M225.184 111.533 C 223.361 113.008,225.339 115.239,229.346 116.227 C 234.328 117.456,238.525 121.589,240.015 126.735 C 242.185 134.229,242.258 263.292,240.096 270.824 C 238.614 275.987,235.887 278.735,229.952 281.046 C 225.200 282.896,223.795 284.220,224.933 285.776 C 225.764 286.913,293.036 286.913,293.867 285.776 C 294.843 284.441,293.671 282.934,290.800 281.834 C 282.288 278.571,279.493 275.538,278.417 268.397 C 277.294 260.951,277.188 253.818,277.292 192.600 L 277.400 129.400 278.308 127.013 C 280.348 121.653,283.661 120.000,292.365 120.000 C 295.807 120.000,298.826 120.189,299.474 120.444 C 300.093 120.688,301.590 121.127,302.800 121.418 C 318.318 125.157,329.842 149.320,326.446 171.000 C 324.639 182.534,322.657 188.181,317.817 195.580 C 313.556 202.094,302.040 211.200,298.064 211.200 C 297.677 211.200,297.154 211.406,296.902 211.658 C 296.642 211.918,293.898 212.286,290.522 212.513 C 281.883 213.093,281.445 214.415,289.000 217.108 C 317.360 227.219,352.281 211.309,362.170 183.772 C 368.515 166.102,366.011 141.583,356.887 132.057 C 356.509 131.662,355.460 130.543,354.555 129.570 C 347.188 121.646,337.106 116.273,325.000 113.820 C 323.240 113.463,321.080 112.989,320.200 112.766 C 314.434 111.302,299.250 110.793,261.544 110.796 C 227.776 110.800,226.046 110.835,225.184 111.533 M206.972 111.969 C 207.645 112.713,207.575 112.799,204.818 114.616 C 199.254 118.281,193.599 128.493,193.600 134.874 C 193.600 135.465,193.404 136.455,193.165 137.074 C 192.926 137.693,192.477 141.080,192.167 144.600 C 191.857 148.120,191.471 151.270,191.309 151.600 C 191.147 151.930,190.921 179.586,190.807 213.058 C 190.606 272.256,190.579 273.939,189.836 274.761 C 189.415 275.225,184.195 278.064,178.236 281.068 C 172.276 284.073,165.870 287.309,164.000 288.260 C 158.355 291.130,158.725 291.374,153.585 281.400 C 151.545 277.440,149.746 274.020,149.587 273.800 C 149.429 273.580,148.348 271.600,147.186 269.400 C 146.024 267.200,143.952 263.330,142.583 260.800 C 141.214 258.270,139.422 254.940,138.602 253.400 C 137.781 251.860,136.253 249.070,135.206 247.200 C 134.159 245.330,132.496 242.270,131.511 240.400 C 129.827 237.202,118.707 216.403,116.114 211.600 C 115.461 210.390,114.063 207.780,113.008 205.800 C 111.953 203.820,110.779 201.660,110.398 201.000 C 110.017 200.340,108.759 198.000,107.602 195.800 C 105.493 191.791,103.718 188.457,101.106 183.600 C 100.337 182.170,98.840 179.380,97.780 177.400 C 96.719 175.420,95.163 172.540,94.321 171.000 C 93.479 169.460,91.964 166.625,90.955 164.700 C 88.992 160.958,87.869 160.189,87.355 162.236 C 86.926 163.946,87.522 246.757,87.980 249.000 C 88.205 250.100,88.578 252.710,88.809 254.800 C 90.291 268.184,95.192 278.935,101.211 282.006 C 103.065 282.951,103.693 283.730,103.531 284.878 L 103.400 285.800 79.008 285.688 C 65.592 285.626,54.460 285.420,54.270 285.230 C 53.631 284.591,54.196 283.434,55.603 282.505 C 62.843 277.723,67.410 267.583,68.803 253.200 C 70.381 236.910,70.437 154.089,68.878 142.600 C 66.736 126.816,63.412 119.764,56.097 115.490 C 53.742 114.114,53.169 113.202,54.016 112.181 C 54.427 111.685,57.965 111.600,78.179 111.600 L 101.861 111.600 102.667 112.500 C 103.464 113.389,104.483 115.174,108.202 122.200 C 109.250 124.180,110.608 126.700,111.219 127.800 C 111.830 128.900,114.211 133.400,116.509 137.800 C 118.808 142.200,123.053 150.177,125.944 155.527 C 128.835 160.877,131.200 165.323,131.200 165.406 C 131.200 165.489,131.804 166.602,132.542 167.879 C 133.280 169.155,134.788 171.910,135.893 174.000 C 136.997 176.090,139.183 180.089,140.750 182.887 C 142.318 185.685,143.600 188.056,143.600 188.156 C 143.600 188.255,144.590 190.051,145.800 192.147 C 147.010 194.243,148.000 196.040,148.000 196.140 C 148.000 196.241,148.648 197.465,149.439 198.862 C 151.902 203.205,152.833 204.919,162.392 222.722 C 170.530 237.877,171.800 240.028,172.547 239.922 L 173.400 239.800 173.397 193.800 C 173.393 152.217,173.328 147.493,172.719 144.600 C 172.349 142.840,171.928 140.230,171.785 138.800 C 171.428 135.251,169.431 127.691,168.037 124.618 C 165.639 119.328,163.409 116.744,159.100 114.261 C 157.162 113.145,156.826 112.534,157.680 111.680 C 158.622 110.738,206.110 111.017,206.972 111.969 M312.000 112.315 C 314.970 112.501,318.480 112.944,319.800 113.301 C 321.120 113.657,323.849 114.325,325.863 114.785 C 349.250 120.124,362.606 134.010,364.786 155.252 C 366.136 168.405,363.880 180.475,358.122 190.903 C 346.906 211.221,321.573 222.682,297.355 218.395 C 290.700 217.217,284.632 215.045,285.867 214.283 C 286.485 213.901,290.934 213.200,292.773 213.194 C 301.777 213.167,315.627 202.232,321.569 190.461 C 330.228 173.308,329.111 147.522,319.074 132.880 C 308.302 117.165,281.819 113.619,277.519 127.315 L 276.614 130.200 276.607 195.200 C 276.599 268.463,276.596 268.365,279.510 274.317 C 281.133 277.633,287.655 282.400,290.568 282.400 C 292.253 282.400,294.143 285.560,292.500 285.629 C 288.020 285.818,226.375 285.632,226.046 285.429 C 224.965 284.760,226.752 282.400,228.340 282.400 C 231.307 282.400,238.124 277.276,239.770 273.808 C 242.148 268.796,242.547 254.205,242.201 185.000 C 241.923 129.390,241.814 127.081,239.256 122.800 C 237.495 119.853,232.971 116.528,229.200 115.408 C 225.984 114.453,224.479 112.880,225.937 111.997 C 226.734 111.514,303.741 111.799,312.000 112.315 " stroke="none" fill="#bfc0c0" fill-rule="evenodd"></path><path id="path3" d="M158.430 111.551 C 156.733 112.025,157.072 112.723,159.872 114.521 C 166.238 118.608,172.000 130.340,172.000 139.215 C 172.000 140.110,172.315 142.138,172.700 143.721 C 173.346 146.379,173.400 150.192,173.400 193.400 L 173.400 240.200 172.468 240.200 C 171.711 240.200,171.221 239.601,169.848 237.000 C 166.452 230.561,157.884 214.567,157.206 213.400 C 156.823 212.740,155.653 210.580,154.606 208.600 C 153.559 206.620,151.847 203.470,150.802 201.600 C 147.640 195.945,144.359 189.960,142.797 187.000 C 141.985 185.460,139.943 181.725,138.260 178.700 C 136.577 175.674,135.200 173.124,135.200 173.031 C 135.200 172.939,134.300 171.305,133.200 169.400 C 132.100 167.495,131.200 165.880,131.200 165.811 C 131.200 165.678,126.022 155.892,124.316 152.800 C 121.702 148.063,117.447 140.112,115.110 135.600 C 113.686 132.850,110.945 127.645,109.019 124.033 C 107.094 120.422,104.985 116.462,104.333 115.233 C 102.226 111.262,104.583 111.600,79.006 111.600 C 66.628 111.600,55.937 111.713,55.250 111.850 C 53.044 112.291,53.541 113.698,56.583 115.619 C 63.477 119.973,67.599 128.624,68.814 141.285 C 69.010 143.328,69.392 146.440,69.662 148.200 C 70.375 152.839,70.374 242.034,69.661 246.600 C 69.386 248.360,69.003 251.690,68.810 254.001 C 68.475 258.006,68.240 259.196,66.324 266.600 C 64.560 273.413,60.666 279.440,56.202 282.264 C 54.369 283.423,53.756 284.499,54.551 285.159 C 55.221 285.715,102.710 285.850,103.262 285.298 C 104.021 284.539,103.235 283.408,101.033 282.091 C 95.022 278.495,88.800 265.216,88.800 255.982 C 88.800 255.036,88.485 252.718,88.101 250.831 C 86.926 245.066,87.032 161.053,88.215 160.883 C 88.852 160.792,89.320 161.314,90.370 163.283 C 91.107 164.668,92.315 166.925,93.055 168.300 C 93.795 169.675,95.051 172.015,95.846 173.500 C 96.641 174.985,97.790 177.100,98.400 178.200 C 99.010 179.300,100.316 181.730,101.303 183.600 C 102.289 185.470,103.724 188.170,104.492 189.600 C 105.259 191.030,106.836 194.000,107.996 196.200 C 109.156 198.400,110.689 201.280,111.403 202.600 C 112.117 203.920,113.382 206.260,114.213 207.800 C 115.044 209.340,117.430 213.750,119.515 217.600 C 123.549 225.051,128.972 235.207,131.903 240.800 C 132.882 242.670,134.357 245.370,135.180 246.800 C 136.003 248.230,137.628 251.200,138.792 253.400 C 142.309 260.053,144.059 263.319,145.006 265.000 C 145.502 265.880,146.624 267.950,147.499 269.600 C 148.374 271.250,149.538 273.410,150.086 274.400 C 150.633 275.390,152.477 278.900,154.183 282.200 C 158.768 291.069,158.455 290.875,163.800 288.158 C 165.780 287.151,172.392 283.816,178.494 280.748 C 184.596 277.679,189.747 274.861,189.940 274.484 C 190.135 274.107,190.410 247.281,190.556 214.600 C 190.705 181.107,190.986 154.010,191.204 152.200 C 191.415 150.440,191.781 146.750,192.017 144.000 C 192.253 141.250,192.705 138.112,193.023 137.027 C 193.340 135.942,193.600 134.550,193.600 133.933 C 193.600 128.007,199.602 117.670,205.078 114.168 C 209.563 111.298,208.733 111.193,182.040 111.240 C 169.588 111.262,158.963 111.402,158.430 111.551 M226.226 112.132 C 225.251 112.845,225.986 114.286,227.512 114.651 C 235.391 116.537,239.915 121.311,241.485 129.400 C 242.278 133.486,242.765 254.099,242.024 263.035 C 241.020 275.151,237.877 279.625,228.171 282.756 C 226.307 283.357,225.181 284.688,226.063 285.247 C 226.499 285.524,286.037 285.897,290.200 285.649 C 291.980 285.544,293.200 285.226,293.200 284.868 C 293.200 284.220,291.542 282.801,290.489 282.549 C 283.459 280.863,278.347 275.343,277.571 268.600 C 277.394 267.060,277.061 264.180,276.831 262.200 C 275.980 254.851,276.282 131.508,277.160 128.128 C 279.438 119.358,288.595 116.560,302.393 120.418 C 321.885 125.867,332.122 151.790,325.753 179.571 C 321.742 197.067,306.885 212.051,292.193 213.419 C 290.657 213.562,288.706 213.853,287.858 214.066 L 286.317 214.453 287.568 215.377 C 294.445 220.450,315.776 220.156,330.301 214.787 C 358.918 204.210,373.521 167.847,360.426 139.775 C 354.742 127.589,342.366 118.599,326.339 115.015 C 324.723 114.653,321.870 114.016,320.000 113.598 C 311.655 111.736,228.545 110.436,226.226 112.132 M205.344 112.278 C 205.621 112.555,205.026 113.142,202.194 115.385 C 198.006 118.702,193.945 126.751,192.802 134.000 C 192.611 135.210,192.269 137.010,192.041 138.000 C 191.814 138.990,191.444 141.960,191.220 144.600 C 190.996 147.240,190.632 151.110,190.411 153.200 C 190.170 155.484,189.950 180.268,189.860 215.331 C 189.728 266.428,189.635 273.736,189.112 274.260 C 188.783 274.589,184.663 276.796,179.957 279.166 C 175.251 281.535,168.856 284.762,165.748 286.337 C 158.265 290.127,159.349 290.622,154.493 281.200 C 152.962 278.230,151.259 274.990,150.708 274.000 C 150.157 273.010,148.938 270.760,148.000 269.000 C 147.061 267.240,145.803 264.900,145.204 263.800 C 144.605 262.700,143.252 260.180,142.198 258.200 C 141.144 256.220,139.499 253.183,138.541 251.451 C 137.583 249.720,136.800 248.213,136.800 248.104 C 136.800 247.994,136.190 246.891,135.443 245.652 C 134.697 244.414,133.054 241.420,131.793 239.000 C 130.531 236.580,129.367 234.420,129.207 234.200 C 129.047 233.980,127.516 231.100,125.804 227.800 C 124.092 224.500,122.560 221.620,122.400 221.400 C 122.240 221.180,121.068 219.020,119.795 216.600 C 118.522 214.180,116.877 211.155,116.140 209.879 C 115.403 208.602,114.800 207.494,114.800 207.418 C 114.800 207.341,113.211 204.336,111.269 200.739 C 109.327 197.143,106.689 192.220,105.407 189.800 C 104.125 187.380,102.591 184.500,101.998 183.400 C 101.405 182.300,99.966 179.600,98.799 177.400 C 97.632 175.200,96.113 172.410,95.422 171.200 C 94.731 169.990,93.363 167.402,92.383 165.449 C 89.918 160.538,88.574 159.123,87.200 159.991 C 85.900 160.813,86.246 244.310,87.584 252.600 C 87.797 253.920,88.139 256.260,88.343 257.800 C 89.940 269.814,94.484 278.978,100.664 282.646 C 104.856 285.134,105.690 285.049,78.700 284.876 C 53.789 284.716,53.391 284.677,56.716 282.713 C 59.811 280.885,63.789 275.759,65.495 271.400 C 67.020 267.505,67.304 266.572,67.750 264.000 C 67.997 262.570,68.347 261.172,68.527 260.894 C 68.831 260.424,69.413 255.814,70.458 245.600 C 71.033 239.985,71.024 155.494,70.448 149.400 C 69.736 141.863,68.826 135.115,68.459 134.648 C 68.265 134.401,67.988 133.266,67.843 132.124 C 67.004 125.522,62.278 118.104,56.880 114.916 C 55.788 114.271,55.206 113.664,55.286 113.250 C 55.487 112.205,101.178 112.055,102.079 113.097 C 102.747 113.870,104.433 116.917,108.095 123.970 C 109.416 126.517,110.634 128.780,110.801 129.000 C 110.968 129.220,112.866 132.820,115.019 137.000 C 117.171 141.180,119.320 145.230,119.793 146.000 C 120.266 146.770,121.429 148.930,122.377 150.800 C 123.325 152.670,124.237 154.380,124.404 154.600 C 124.570 154.820,125.920 157.340,127.404 160.200 C 128.889 163.060,130.240 165.580,130.409 165.800 C 130.577 166.020,131.611 167.910,132.706 170.000 C 135.279 174.910,139.197 182.087,139.584 182.600 C 139.750 182.820,140.696 184.530,141.685 186.400 C 142.675 188.270,143.896 190.520,144.400 191.400 C 144.904 192.280,146.121 194.530,147.106 196.400 C 148.091 198.270,149.117 200.160,149.386 200.600 C 150.018 201.633,151.849 204.966,154.000 209.000 C 154.939 210.760,156.199 213.100,156.800 214.200 C 157.401 215.300,158.661 217.640,159.600 219.400 C 160.539 221.160,161.797 223.500,162.396 224.600 C 162.995 225.700,164.348 228.220,165.402 230.200 C 170.975 240.666,171.249 241.118,172.195 241.376 C 172.724 241.521,173.247 241.299,173.720 240.729 C 174.624 239.640,174.570 147.624,173.664 144.600 C 173.400 143.720,172.927 141.110,172.612 138.800 C 170.800 125.478,167.525 118.968,159.858 113.450 C 159.284 113.037,158.912 112.542,159.031 112.350 C 159.285 111.939,204.935 111.868,205.344 112.278 M310.642 113.108 C 314.405 113.329,317.844 113.702,318.284 113.938 C 318.724 114.173,320.325 114.562,321.842 114.802 C 327.063 115.628,335.887 118.447,340.200 120.668 C 349.372 125.390,356.018 131.989,359.782 140.109 C 362.361 145.675,363.504 150.261,363.984 156.978 C 366.894 197.696,334.211 225.202,293.076 216.655 C 288.245 215.651,288.364 214.171,293.286 214.047 C 300.018 213.878,311.700 206.279,317.919 198.022 C 330.334 181.540,331.893 152.758,321.347 134.764 C 315.046 124.012,305.315 118.471,292.400 118.280 C 282.620 118.135,278.345 120.749,276.400 128.062 C 275.522 131.364,275.168 255.331,276.017 262.000 C 276.228 263.650,276.567 266.440,276.771 268.200 C 277.503 274.518,280.436 278.718,286.086 281.543 C 287.909 282.454,289.709 283.200,290.086 283.200 C 290.831 283.200,291.940 284.788,291.214 284.816 C 290.986 284.825,276.670 284.832,259.400 284.832 C 242.130 284.832,227.818 284.825,227.597 284.816 C 226.952 284.790,228.118 283.200,228.782 283.200 C 230.002 283.200,235.864 279.989,237.466 278.443 C 239.786 276.204,241.503 272.500,242.320 267.971 C 243.233 262.907,243.373 137.144,242.473 131.006 C 241.100 121.650,236.310 115.894,228.500 114.216 C 227.570 114.016,227.200 113.713,227.200 113.151 C 227.200 112.267,295.692 112.232,310.642 113.108 " stroke="none" fill="#acacac" fill-rule="evenodd"></path><path id="path4" d="M53.646 113.051 C 53.621 113.519,53.915 114.149,54.300 114.451 C 54.909 114.928,54.940 114.922,54.543 114.400 C 54.292 114.070,53.998 113.440,53.889 113.000 C 53.703 112.240,53.690 112.243,53.646 113.051 M313.100 112.689 C 313.815 112.778,314.985 112.778,315.700 112.689 C 316.415 112.601,315.830 112.528,314.400 112.528 C 312.970 112.528,312.385 112.601,313.100 112.689 M289.900 119.095 C 291.055 119.176,292.945 119.176,294.100 119.095 C 295.255 119.014,294.310 118.948,292.000 118.948 C 289.690 118.948,288.745 119.014,289.900 119.095 M350.400 126.525 C 350.400 126.594,350.985 127.179,351.700 127.825 L 353.000 129.000 351.825 127.700 C 350.730 126.488,350.400 126.216,350.400 126.525 M315.200 128.200 C 315.946 128.970,316.647 129.600,316.757 129.600 C 316.867 129.600,316.346 128.970,315.600 128.200 C 314.854 127.430,314.153 126.800,314.043 126.800 C 313.933 126.800,314.454 127.430,315.200 128.200 M353.200 129.325 C 353.200 129.394,353.785 129.979,354.500 130.625 L 355.800 131.800 354.625 130.500 C 353.530 129.288,353.200 129.016,353.200 129.325 M276.562 136.600 C 276.562 140.120,276.624 141.506,276.698 139.681 C 276.772 137.856,276.772 134.976,276.697 133.281 C 276.622 131.586,276.561 133.080,276.562 136.600 M242.184 158.800 C 242.184 168.370,242.236 172.285,242.300 167.500 C 242.363 162.715,242.363 154.885,242.300 150.100 C 242.236 145.315,242.184 149.230,242.184 158.800 M192.093 143.200 C 192.093 143.970,192.175 144.285,192.276 143.900 C 192.376 143.515,192.376 142.885,192.276 142.500 C 192.175 142.115,192.093 142.430,192.093 143.200 M173.331 151.800 C 173.333 153.340,173.405 153.921,173.492 153.091 C 173.579 152.261,173.577 151.001,173.489 150.291 C 173.400 149.581,173.329 150.260,173.331 151.800 M69.737 152.600 C 69.739 154.360,69.809 155.030,69.893 154.089 C 69.978 153.149,69.977 151.709,69.891 150.889 C 69.805 150.070,69.736 150.840,69.737 152.600 M190.924 156.600 C 190.926 157.920,191.001 158.412,191.090 157.693 C 191.179 156.974,191.177 155.894,191.086 155.293 C 190.995 154.692,190.922 155.280,190.924 156.600 M327.328 160.000 C 327.328 161.430,327.401 162.015,327.489 161.300 C 327.578 160.585,327.578 159.415,327.489 158.700 C 327.401 157.985,327.328 158.570,327.328 160.000 M364.893 158.800 C 364.893 159.570,364.975 159.885,365.076 159.500 C 365.176 159.115,365.176 158.485,365.076 158.100 C 364.975 157.715,364.893 158.030,364.893 158.800 M87.467 161.067 C 87.320 161.213,87.203 161.528,87.206 161.767 C 87.210 162.060,87.307 162.053,87.506 161.746 C 87.668 161.497,88.160 161.203,88.600 161.093 C 89.374 160.899,89.373 160.891,88.567 160.846 C 88.108 160.821,87.613 160.920,87.467 161.067 M364.893 166.000 C 364.893 166.770,364.975 167.085,365.076 166.700 C 365.176 166.315,365.176 165.685,365.076 165.300 C 364.975 164.915,364.893 165.230,364.893 166.000 M327.320 168.400 C 327.320 169.610,327.395 170.105,327.487 169.500 C 327.578 168.895,327.578 167.905,327.487 167.300 C 327.395 166.695,327.320 167.190,327.320 168.400 M70.190 197.800 C 70.189 213.420,70.239 219.868,70.300 212.129 C 70.361 204.391,70.361 191.611,70.300 183.729 C 70.239 175.848,70.190 182.180,70.190 197.800 M190.593 230.600 C 190.593 253.920,190.641 263.519,190.700 251.931 C 190.759 240.342,190.759 221.262,190.700 209.531 C 190.641 197.799,190.593 207.280,190.593 230.600 M312.985 202.500 L 311.000 204.600 313.100 202.615 C 315.051 200.771,315.383 200.400,315.085 200.400 C 315.022 200.400,314.077 201.345,312.985 202.500 M290.705 213.483 C 291.202 213.579,291.922 213.575,292.305 213.475 C 292.687 213.375,292.280 213.296,291.400 213.301 C 290.520 213.305,290.207 213.387,290.705 213.483 M285.855 214.311 C 285.749 214.482,286.234 214.934,286.932 215.317 C 288.197 216.010,288.198 216.010,287.298 215.240 C 286.675 214.707,286.551 214.406,286.898 214.266 C 287.210 214.140,287.144 214.051,286.724 214.032 C 286.352 214.014,285.961 214.140,285.855 214.311 M311.300 219.076 C 311.685 219.176,312.315 219.176,312.700 219.076 C 313.085 218.975,312.770 218.893,312.000 218.893 C 311.230 218.893,310.915 218.975,311.300 219.076 M87.357 237.200 C 87.357 240.170,87.420 241.385,87.497 239.900 C 87.574 238.415,87.574 235.985,87.497 234.500 C 87.420 233.015,87.357 234.230,87.357 237.200 M69.744 241.600 C 69.744 243.690,69.812 244.545,69.894 243.500 C 69.976 242.455,69.976 240.745,69.894 239.700 C 69.812 238.655,69.744 239.510,69.744 241.600 M171.462 240.100 C 171.564 240.265,171.986 240.400,172.400 240.400 C 172.814 240.400,173.236 240.265,173.338 240.100 C 173.440 239.935,173.018 239.800,172.400 239.800 C 171.782 239.800,171.360 239.935,171.462 240.100 M242.171 252.000 C 242.171 256.950,242.228 258.975,242.299 256.500 C 242.369 254.025,242.369 249.975,242.299 247.500 C 242.228 245.025,242.171 247.050,242.171 252.000 M276.493 258.800 C 276.493 259.570,276.575 259.885,276.676 259.500 C 276.776 259.115,276.776 258.485,276.676 258.100 C 276.575 257.715,276.493 258.030,276.493 258.800 M56.900 285.876 C 57.285 285.976,57.915 285.976,58.300 285.876 C 58.685 285.775,58.370 285.693,57.600 285.693 C 56.830 285.693,56.515 285.775,56.900 285.876 M94.700 285.889 C 95.415 285.978,96.585 285.978,97.300 285.889 C 98.015 285.801,97.430 285.728,96.000 285.728 C 94.570 285.728,93.985 285.801,94.700 285.889 M228.900 285.896 C 230.165 285.975,232.235 285.975,233.500 285.896 C 234.765 285.816,233.730 285.751,231.200 285.751 C 228.670 285.751,227.635 285.816,228.900 285.896 M284.311 285.893 C 285.251 285.978,286.691 285.977,287.511 285.891 C 288.330 285.805,287.560 285.736,285.800 285.737 C 284.040 285.739,283.370 285.809,284.311 285.893 M290.100 285.876 C 290.485 285.976,291.115 285.976,291.500 285.876 C 291.885 285.775,291.570 285.693,290.800 285.693 C 290.030 285.693,289.715 285.775,290.100 285.876 " stroke="none" fill="#b2b4b4" fill-rule="evenodd"></path></g></svg>